<svg xmlns="http://www.w3.org/2000/svg" width="816" height="945" viewBox="0 0 816 945" version="1.1"><path d="M 338.500 11.099 C 274.171 17.801, 220.822 36.693, 180.374 67.095 C 168.531 75.996, 149.264 93.292, 149.708 94.623 C 149.898 95.193, 148.628 97.423, 146.887 99.579 C 140.222 107.835, 131.484 122.003, 125.351 134.500 C 87.452 211.725, 103.306 306.325, 164.576 368.548 C 185.685 389.985, 215.587 410.483, 245.106 423.750 C 251.373 426.567, 322.650 456.363, 403.500 489.963 C 484.350 523.564, 555.900 553.723, 562.500 556.984 C 627.136 588.916, 670.050 645.413, 677.947 708.974 C 688.101 790.698, 633.399 871.664, 543.178 908.452 C 509.147 922.327, 466.682 932.636, 429.900 935.951 C 420.875 936.765, 422.079 936.831, 439 936.453 C 507.273 934.929, 566.408 923.679, 606.500 904.589 C 630.991 892.927, 650.638 878.669, 683 849.073 C 691.682 841.133, 694.577 837.868, 694.816 835.747 C 694.989 834.202, 697.626 829.465, 700.675 825.219 C 721.439 796.308, 734.734 762.183, 739.066 726.681 C 741.037 710.529, 739.757 678.365, 736.532 663 C 724.451 605.449, 691.109 556.824, 638 519.307 C 627.457 511.859, 612.045 502.546, 601.500 497.251 C 594.613 493.792, 437.901 427.827, 323 380.021 C 302.925 371.669, 280.177 361.744, 272.449 357.967 C 240.646 342.423, 211.331 319.031, 192.912 294.500 C 178.875 275.806, 168.732 252.597, 163.979 228.299 C 150.516 159.475, 183.166 90.984, 250.044 47.758 C 279.733 28.569, 311.066 17.263, 351.500 11.149 L 357.500 10.241 352 10.254 C 348.975 10.261, 342.900 10.641, 338.500 11.099 M 683.264 53.718 C 684.784 53.947, 687.034 53.941, 688.264 53.704 C 689.494 53.467, 688.250 53.279, 685.500 53.286 C 682.750 53.294, 681.744 53.488, 683.264 53.718 M 260.958 257.250 C 265.102 261.665, 266 262.459, 266 261.708 C 266 261.548, 263.863 259.410, 261.250 256.958 L 256.500 252.500 260.958 257.250 M 149.500 771 C 152.209 773.750, 154.650 776, 154.925 776 C 155.200 776, 153.209 773.750, 150.500 771 C 147.791 768.250, 145.350 766, 145.075 766 C 144.800 766, 146.791 768.250, 149.500 771 M 565.462 827.250 L 560.500 832.500 565.750 827.538 C 570.628 822.926, 571.459 822, 570.712 822 C 570.554 822, 568.192 824.362, 565.462 827.250 M 407.776 879.733 C 410.128 879.945, 413.728 879.942, 415.776 879.727 C 417.824 879.512, 415.900 879.339, 411.500 879.343 C 407.100 879.346, 405.424 879.522, 407.776 879.733" stroke="none" fill="#f8eddc" fill-rule="evenodd"/><path d="M 375 8.607 C 322.730 13.243, 285.301 24.970, 250.044 47.758 C 190.989 85.928, 158.604 143.123, 161.296 204.500 C 162.735 237.302, 173.962 269.263, 192.912 294.500 C 211.331 319.031, 240.646 342.423, 272.449 357.967 C 280.177 361.744, 302.925 371.669, 323 380.021 C 437.901 427.827, 594.613 493.792, 601.500 497.251 C 627.317 510.215, 651.536 527.641, 673.335 548.938 C 706.239 581.083, 727.325 619.141, 736.532 663 C 739.757 678.365, 741.037 710.529, 739.066 726.681 C 734.728 762.229, 721.443 796.302, 700.610 825.311 C 697.379 829.809, 695 834.181, 695 835.619 C 695 838.048, 695.158 837.993, 700.750 833.598 C 707.052 828.644, 720.911 815.448, 722.500 812.889 C 723.050 812.002, 727.244 806.827, 731.820 801.389 C 756.424 772.146, 773.735 735.952, 780.971 698.623 C 795.827 621.981, 769.914 543.534, 710.073 483.989 C 690.269 464.283, 669.362 448.587, 644.379 434.670 C 630.159 426.749, 635.316 428.951, 478.500 363.840 C 400.400 331.413, 330.929 302.205, 324.120 298.934 C 292.878 283.928, 265.672 264.649, 254.155 249.356 C 240.486 231.207, 232.012 205.620, 232.012 182.500 C 232.012 159.128, 240.664 133.403, 255.039 114.036 C 273.923 88.595, 309.598 70.262, 356.500 61.897 C 373.635 58.841, 411.691 58.113, 432 60.453 C 545.987 73.587, 648.743 128.842, 698.731 203.883 C 713.829 226.547, 724.491 251.882, 729.080 276 C 732.076 291.741, 731.791 291.167, 735.750 289.481 L 739 288.097 739 168.440 L 739 48.783 736.750 49.334 C 719.471 53.563, 680.729 54.770, 661.289 51.685 C 655.673 50.794, 626.873 44.448, 597.289 37.585 C 567.705 30.721, 539 24.198, 533.500 23.090 C 508.961 18.147, 476.556 13.416, 447 10.462 C 432.249 8.988, 384.561 7.759, 375 8.607 M 139.559 100.229 C 103.453 133.700, 79.665 172.284, 68.077 216.173 C 56.479 260.100, 58.036 305.057, 72.643 348 C 84.548 383.002, 106.600 414.315, 138.963 442.177 C 149.695 451.416, 167.483 464.188, 178 470.205 C 198.216 481.772, 253.294 509.055, 282.909 522.174 C 290.284 525.441, 343.252 547.650, 400.617 571.527 C 457.981 595.405, 509.772 617.380, 515.708 620.360 C 551.084 638.125, 578.987 663.813, 591.477 690.114 C 597.773 703.371, 600.175 715.042, 600.715 735 C 601.128 750.232, 600.909 753.861, 599.030 763 C 595.163 781.814, 589.703 795.023, 579.190 811 C 561.650 837.657, 525.370 860.078, 482.099 871.001 C 457.648 877.174, 439.577 879.267, 411 879.236 C 334.843 879.153, 254.537 852.575, 191.726 806.666 C 120.071 754.293, 71.167 677.015, 60.311 599.007 C 59.292 591.682, 58.039 586, 57.445 586 C 56.864 586, 53.601 586.941, 50.194 588.092 L 44 590.184 44.062 748.342 L 44.123 906.500 55.602 916 C 61.916 921.225, 67.513 925.650, 68.041 925.833 C 68.568 926.017, 69.004 924.892, 69.010 923.333 C 69.024 919.144, 73.197 911.040, 77.618 906.613 C 85.865 898.356, 102.120 893.187, 122.500 892.341 C 139.253 891.645, 149.633 893.229, 178.930 900.949 C 221.749 912.232, 260.563 920.925, 301.500 928.401 C 333.902 934.318, 345.360 935.743, 371.756 937.135 C 428.808 940.143, 490.958 929.744, 543.178 908.452 C 594.993 887.324, 636.569 850.976, 659.477 806.775 C 691.724 744.555, 683.551 672.245, 637.966 616.458 C 618.742 592.932, 590.983 571.055, 562.500 556.984 C 555.900 553.723, 484.350 523.564, 403.500 489.963 C 239.604 421.850, 238.543 421.393, 221.606 411.704 C 176.587 385.949, 146.471 355.108, 126.023 313.821 C 98.098 257.435, 97.841 190.679, 125.333 134.500 C 130.845 123.238, 141.292 106.442, 148.123 97.861 C 149.597 96.010, 149.956 94.743, 149.325 93.616 C 148.580 92.284, 146.907 93.417, 139.559 100.229" stroke="none" fill="#414752" fill-rule="evenodd"/></svg>