<?xml version="1.0" encoding="utf-8"?>
<!-- Generator: Adobe Illustrator 13.0.0, SVG Export Plug-In . SVG Version: 6.00 Build 14948)  -->
<!DOCTYPE svg PUBLIC "-//W3C//DTD SVG 1.1//EN" "http://www.w3.org/Graphics/SVG/1.1/DTD/svg11.dtd">
<svg version="1.1" id="Ebene_1" xmlns="http://www.w3.org/2000/svg" xmlns:xlink="http://www.w3.org/1999/xlink" x="0px" y="0px"
	 width="1502.362px" height="215.434px" viewBox="0 0 1502.362 215.434" enable-background="new 0 0 1502.362 215.434"
	 xml:space="preserve">
<g>
	<polygon fill="#F9ECDC" points="0,2.835 1502.362,2.835 1502.362,215.434 0,215.434 0,2.835 	"/>
	<path fill="#FFFFFF" d="M360.984,116.742c2.683-3.859,4.025-7.795,4.025-11.572c0-5.458-2.5-10.911-6.213-14.611
		c-1.042-1.036-2.036-2.095-3.354-3.019c-1.328-0.93-3.116-2.142-4.448-2.767c-0.241-0.108-2.688-1.074-2.935-1.176l-15.276-6.129
		l-10.156-4.027c-4.184-1.792-7.393-4.085-9.267-7.091c-1.46-2.374-2.015-4.521-2.015-7.423c0-3.228,0.417-5.662,2.231-8.225
		c2.234-3.213,5.185-6.035,9.374-7.568c1.8-0.626,4.099-1.235,6.492-1.517c1.228-0.144,2.62-0.183,2.618-0.415
		c-11.598-0.157-18.654,3.124-23.292,7.978c-2.887,3.084-4.854,7.401-4.854,11.978c0,3.488,1.082,7.516,2.68,10.266
		c2.082,3.847,6.264,7.769,11.578,9.988l27.281,11.417c7.108,3.119,11.249,8.248,11.249,15.36c0,2.857-0.673,5.875-2.521,8.553
		h-4.282c-0.407,0.566-1.523,1.488-2.008,1.939c-4.026,3.658-12.028,5.637-19.647,4.447c-5.704-0.859-12.166-3.025-16.193-6.387H0V0
		h1502.362v116.742H360.984L360.984,116.742z"/>
	<path fill="#424751" d="M139.062,144.277c-1.537-0.543-3.296-0.799-4.768-0.799c-4.032,0-7.168,2.111-7.168,6.08
		c0,6.943,9.6,5.568,9.6,10.561c0,2.623-2.56,3.646-4.384,3.646c-1.632,0-3.552-0.639-4.64-1.088l-0.321,2.977
		c1.472,0.48,3.009,0.928,4.576,0.928c4.48,0,8.161-1.889,8.161-6.656c0-7.359-9.6-6.367-9.6-10.656
		c0-2.336,2.111-2.975,3.903-2.975c1.665,0,2.561,0.287,4.193,0.928L139.062,144.277L139.062,144.277z"/>
	<path fill="#424751" d="M152.855,149.879h-4.32v-4.736l-3.008,0.959v3.777h-3.68v2.432h3.68v9.535c0,3.266,1.92,4.736,5.024,4.736
		c0.96,0,1.888-0.256,2.56-0.447v-2.561c-0.448,0.287-1.12,0.576-2.048,0.576c-1.376,0-2.528-1.023-2.528-2.912v-8.928h4.32V149.879
		L152.855,149.879z"/>
	<path fill-rule="evenodd" clip-rule="evenodd" fill="#424751" d="M169.139,162.518c-0.736,0.609-3.04,1.633-5.024,1.633
		c-2.848,0-5.376-2.209-5.376-5.439h11.648c0-5.248-1.76-9.217-7.2-9.217c-4.608,0-7.648,3.424-7.648,8.256
		c0,5.312,2.656,8.832,8.448,8.832c2.688,0,4-0.641,5.152-1.057V162.518L169.139,162.518z M158.739,156.471
		c0.224-2.113,1.44-4.545,4.384-4.545c2.592,0,4.064,2.049,4.064,4.545H158.739L158.739,156.471z"/>
	<path fill="#424751" d="M188.528,149.879h-3.008v7.551c0,3.969-1.536,6.721-4.96,6.721c-2.624-0.16-3.456-2.016-3.456-5.824v-8.447
		h-3.008v9.695c0,4.383,1.888,7.008,6.112,7.008c2.272,0,4.448-1.119,5.344-2.977h0.064v2.592h2.912V149.879L188.528,149.879z"/>
	<path fill-rule="evenodd" clip-rule="evenodd" fill="#424751" d="M206.157,162.518c-0.736,0.609-3.04,1.633-5.024,1.633
		c-2.848,0-5.376-2.209-5.376-5.439h11.648c0-5.248-1.76-9.217-7.2-9.217c-4.608,0-7.648,3.424-7.648,8.256
		c0,5.312,2.656,8.832,8.448,8.832c2.688,0,4-0.641,5.152-1.057V162.518L206.157,162.518z M195.757,156.471
		c0.224-2.113,1.44-4.545,4.384-4.545c2.592,0,4.064,2.049,4.064,4.545H195.757L195.757,156.471z"/>
	<path fill="#424751" d="M211.434,166.197h3.008v-7.424c0-4.096,1.76-6.656,4.448-6.656c0.512,0,1.12,0.064,1.664,0.289v-2.688
		c-0.64-0.129-1.088-0.225-1.984-0.225c-1.728,0-3.456,1.217-4.256,2.912h-0.064v-2.527h-2.816V166.197L211.434,166.197z"/>
	<polygon fill="#424751" points="223.877,166.197 226.885,166.197 226.885,157.814 234.181,166.197 238.501,166.197 
		229.958,157.109 237.542,149.879 233.445,149.879 226.885,156.502 226.885,142.197 223.877,142.197 223.877,166.197 	"/>
	<path fill-rule="evenodd" clip-rule="evenodd" fill="#424751" d="M241.954,153.59c1.217-1.023,3.04-1.664,4.736-1.664
		c3.008,0,4.032,1.439,4.032,4.256c-1.184-0.064-2.016-0.064-3.2-0.064c-3.104,0-7.584,1.281-7.584,5.377
		c0,3.553,2.464,5.088,5.984,5.088c2.752,0,4.352-1.504,5.056-2.496h0.064v2.111h2.815c-0.064-0.479-0.128-1.344-0.128-3.199v-6.752
		c0-4.447-1.888-6.752-6.56-6.752c-2.08,0-3.872,0.641-5.376,1.535L241.954,153.59L241.954,153.59z M250.722,159.861
		c0,2.434-1.568,4.289-4.544,4.289c-1.376,0-3.04-0.928-3.04-2.656c0-2.881,4.032-3.137,5.664-3.137c0.64,0,1.28,0.064,1.92,0.064
		V159.861L250.722,159.861z"/>
	<path fill="#424751" d="M258.815,166.197h3.007v-7.551c0-3.969,1.537-6.721,4.96-6.721c2.624,0.16,3.456,2.016,3.456,5.824v8.447
		h3.009v-9.695c0-4.385-1.888-7.008-6.113-7.008c-2.271,0-4.448,1.119-5.344,2.977h-0.063v-2.592h-2.912V166.197L258.815,166.197z"
		/>
	<polygon fill="#424751" points="277.18,166.197 290.428,166.197 290.428,163.766 280.668,163.766 290.076,152.502 290.076,149.879 
		277.628,149.879 277.628,152.311 286.588,152.311 277.18,163.574 277.18,166.197 	"/>
	<polygon fill="#424751" points="294.75,166.197 297.758,166.197 297.758,142.197 294.75,142.197 294.75,166.197 	"/>
	<path fill-rule="evenodd" clip-rule="evenodd" fill="#424751" d="M315.674,162.518c-0.736,0.609-3.04,1.633-5.024,1.633
		c-2.848,0-5.376-2.209-5.376-5.439h11.648c0-5.248-1.76-9.217-7.2-9.217c-4.607,0-7.647,3.424-7.647,8.256
		c0,5.312,2.655,8.832,8.448,8.832c2.688,0,4-0.641,5.152-1.057V162.518L315.674,162.518z M305.274,156.471
		c0.224-2.113,1.44-4.545,4.384-4.545c2.592,0,4.064,2.049,4.064,4.545H305.274L305.274,156.471z"/>
	<path fill-rule="evenodd" clip-rule="evenodd" fill="#424751" d="M321.175,166.197h3.008v-16.318h-3.008V166.197L321.175,166.197z
		 M324.375,142.838h-3.392v3.393h3.392V142.838L324.375,142.838z"/>
	<path fill="#424751" d="M349.454,144.277c-1.536-0.543-3.296-0.799-4.768-0.799c-4.032,0-7.168,2.111-7.168,6.08
		c0,6.943,9.6,5.568,9.6,10.561c0,2.623-2.56,3.646-4.384,3.646c-1.632,0-3.552-0.639-4.64-1.088l-0.32,2.977
		c1.472,0.48,3.008,0.928,4.576,0.928c4.48,0,8.16-1.889,8.16-6.656c0-7.359-9.6-6.367-9.6-10.656c0-2.336,2.112-2.975,3.904-2.975
		c1.664,0,2.56,0.287,4.192,0.928L349.454,144.277L349.454,144.277z"/>
	<path fill-rule="evenodd" clip-rule="evenodd" fill="#424751" d="M355.504,153.59c1.216-1.023,3.04-1.664,4.736-1.664
		c3.008,0,4.032,1.439,4.032,4.256c-1.185-0.064-2.016-0.064-3.2-0.064c-3.104,0-7.584,1.281-7.584,5.377
		c0,3.553,2.464,5.088,5.984,5.088c2.752,0,4.352-1.504,5.056-2.496h0.064v2.111h2.816c-0.064-0.479-0.128-1.344-0.128-3.199v-6.752
		c0-4.447-1.888-6.752-6.56-6.752c-2.08,0-3.872,0.641-5.376,1.535L355.504,153.59L355.504,153.59z M364.272,159.861
		c0,2.434-1.568,4.289-4.544,4.289c-1.376,0-3.04-0.928-3.04-2.656c0-2.881,4.032-3.137,5.664-3.137c0.64,0,1.28,0.064,1.92,0.064
		V159.861L364.272,159.861z"/>
	<path fill-rule="evenodd" clip-rule="evenodd" fill="#424751" d="M386.797,149.879h-2.784v2.432h-0.064
		c-0.896-1.76-2.496-2.816-5.376-2.816c-4.928,0-7.296,4.48-7.296,8.672c0,4.225,2.304,8.031,6.976,8.031
		c2.08,0,4.192-0.832,5.472-2.527h0.064v1.6c0,3.457-1.888,5.6-5.056,5.6c-2.208,0-3.584-0.416-5.888-1.471l-0.32,2.783
		c2.624,0.896,4.128,1.121,5.856,1.121c5.855,0,8.416-2.85,8.416-7.809V149.879L386.797,149.879z M379.021,163.766
		c-2.816,0-4.544-2.688-4.544-5.76c0-2.783,1.504-6.08,4.544-6.08c3.2,0,4.769,2.912,4.769,6.305
		C383.789,161.27,381.837,163.766,379.021,163.766L379.021,163.766z"/>
	<path fill-rule="evenodd" clip-rule="evenodd" fill="#424751" d="M404.426,162.518c-0.736,0.609-3.04,1.633-5.024,1.633
		c-2.848,0-5.375-2.209-5.375-5.439h11.648c0-5.248-1.76-9.217-7.2-9.217c-4.608,0-7.647,3.424-7.647,8.256
		c0,5.312,2.655,8.832,8.447,8.832c2.688,0,4-0.641,5.152-1.057V162.518L404.426,162.518z M394.026,156.471
		c0.224-2.113,1.439-4.545,4.384-4.545c2.592,0,4.064,2.049,4.064,4.545H394.026L394.026,156.471z"/>
	<path fill="#424751" d="M409.702,166.197h3.008v-7.424c0-4.096,1.76-6.656,4.448-6.656c0.511,0,1.12,0.064,1.664,0.289v-2.688
		c-0.641-0.129-1.089-0.225-1.985-0.225c-1.728,0-3.456,1.217-4.255,2.912h-0.064v-2.527h-2.816V166.197L409.702,166.197z"/>
	<path fill-rule="evenodd" clip-rule="evenodd" fill="#424751" d="M434.018,162.518c-0.735,0.609-3.04,1.633-5.023,1.633
		c-2.848,0-5.376-2.209-5.376-5.439h11.648c0-5.248-1.759-9.217-7.2-9.217c-4.608,0-7.648,3.424-7.648,8.256
		c0,5.312,2.656,8.832,8.448,8.832c2.688,0,4-0.641,5.152-1.057V162.518L434.018,162.518z M423.618,156.471
		c0.224-2.113,1.44-4.545,4.384-4.545c2.592,0,4.064,2.049,4.064,4.545H423.618L423.618,156.471z"/>
	<path fill="#424751" d="M439.135,166.197h3.008v-7.424c0-4.096,1.76-6.656,4.448-6.656c0.512,0,1.121,0.064,1.664,0.289v-2.688
		c-0.64-0.129-1.088-0.225-1.984-0.225c-1.728,0-3.455,1.217-4.256,2.912h-0.064v-2.527h-2.816V166.197L439.135,166.197z"/>
	<path fill="#424751" stroke="#424751" stroke-width="0" stroke-miterlimit="3.8637" d="M299.057,117.922H0v-1.814h299.057V95.321
		l1.245-0.418c1.136,12.2,11.913,24.523,28.212,26.98c7.62,1.189,14.756-0.586,18.781-4.246c2.12-1.967,3.588-5.141,3.588-8.516
		c0-1.223-0.177-2.398-0.503-3.494c-0.885-3.055-4.101-6.063-8.427-8.06l-19.75-8.221c-3.41-1.5-6.725-3.117-9.692-4.707
		c-1.492-0.761-2.991-1.75-4.423-2.951c-2.598-2.18-4.543-4.702-5.665-7.134c-2.364-5.219-2.575-11.485,0-17.268
		c1.132-2.542,2.691-4.754,4.561-6.585c0.545-0.569,1.127-1.14,1.733-1.653l0.098,0.22c-2.63,3.162-4.222,7.337-4.222,11.914
		c0,3.487,0.924,6.742,2.523,9.492c2.082,3.847,6.151,7.375,11.465,9.595l27.462,11.428c7.108,3.12,11.945,9.297,11.945,16.409
		c0,7.773-5.853,14.5-14.056,17.268c-3.784,1.379-8.111,2.162-12.703,2.162c-2.584,0-5.083-0.248-7.449-0.711
		c-3.707-0.635-8.184-1.615-12.966-2.896l-0.717-0.193c-2.753-0.723-5.425-0.545-7.192,0.326c-0.938,0.455-1.586,1.346-1.688,2.391
		l-2.156-1.807L299.057,117.922L299.057,117.922z"/>
	<path fill-rule="evenodd" clip-rule="evenodd" fill="#424751" stroke="#424751" stroke-width="0" stroke-miterlimit="3.8637" d="
		M361.852,116.107h1140.511v1.814H359.959l-0.41,0.32l0.011-0.336c2.67-3.416,4.246-7.619,4.246-12.165
		c0-5.458-2.353-10.486-6.065-14.186c-1.042-1.037-2.236-2.039-3.554-2.962c-1.328-0.93-2.679-1.71-4.011-2.334
		c-0.241-0.108-0.487-0.214-0.733-0.317l-17.884-7.495l-9.921-4.148c-4.184-1.792-7.548-4.499-9.422-7.505
		c-1.46-2.374-2.283-5.096-2.283-7.998c0-3.228,1.039-6.244,2.854-8.808c2.234-3.213,5.753-5.808,9.942-7.341
		c1.8-0.626,4.072-1.104,6.565-1.322c1.572-0.138,3.075-0.158,4.443-0.079c4.743,0.266,9.313,0.956,13.537,1.981l7.895,1.834
		c1.26,0.263,2.642,0.408,4.087,0.408c1.535,0,2.997-0.163,4.324-0.458l-0.033,22.159l-0.564,0.226
		c-1.237-10.517-12.246-19.092-26.652-21.262c-6.758-1.056-13.143,0.424-16.713,3.67c-1.88,1.746-3.183,4.56-3.183,7.553
		c0,2.466,0.811,4.713,2.141,6.404c1.491,1.758,4.126,3.496,7.607,5.047l26.134,10.852c10.136,4.379,16.641,14.026,15.38,24.296
		C367.121,108.631,364.987,112.793,361.852,116.107L361.852,116.107z"/>
</g>
</svg>
