<?xml version="1.0" encoding="utf-8"?>
<!-- Generator: Adobe Illustrator 13.0.0, SVG Export Plug-In . SVG Version: 6.00 Build 14948)  -->
<!DOCTYPE svg PUBLIC "-//W3C//DTD SVG 1.1//EN" "http://www.w3.org/Graphics/SVG/1.1/DTD/svg11.dtd">
<svg version="1.1" id="Ebene_1" xmlns="http://www.w3.org/2000/svg" xmlns:xlink="http://www.w3.org/1999/xlink" x="0px" y="0px"
	 width="320.314px" height="172.914px" viewBox="0 0 320.314 172.914" enable-background="new 0 0 320.314 172.914"
	 xml:space="preserve">
<g>
	<polygon fill="#F9ECDC" points="0,2.835 320.314,2.835 320.314,172.914 0,172.914 0,2.835 	"/>
	<path fill="#FFFFFF" d="M224.977,86.065c2.36-3.396,3.541-6.86,3.541-10.183c0-4.803-2.2-9.601-5.467-12.858
		c-0.917-0.912-1.792-1.844-2.952-2.656c-1.168-0.818-2.741-1.885-3.914-2.435c-0.212-0.095-2.365-0.945-2.582-1.035l-13.443-5.394
		l-8.938-3.544c-3.682-1.577-6.505-3.595-8.155-6.24c-1.285-2.089-1.772-3.979-1.772-6.533c0-2.84,0.366-4.982,1.964-7.238
		c1.966-2.827,4.562-5.311,8.248-6.66c1.585-0.551,3.607-1.087,5.714-1.334c1.08-0.127,2.306-0.161,2.303-0.365
		c-10.205-0.138-16.415,2.749-20.496,7.021c-2.542,2.714-4.271,6.513-4.271,10.541c0,3.069,0.951,6.613,2.358,9.034
		c1.832,3.385,5.512,6.836,10.188,8.79l24.008,10.047c6.255,2.745,9.898,7.258,9.898,13.517c0,2.515-0.592,5.171-2.219,7.527h-3.768
		c-0.358,0.498-1.34,1.31-1.768,1.706c-3.542,3.221-10.584,4.961-17.289,3.914c-5.02-0.756-10.706-2.662-14.25-5.62L0,86.066V0
		h320.314v86.066L224.977,86.065L224.977,86.065z"/>
	<path fill="#424751" d="M29.682,110.297c-1.352-0.479-2.9-0.703-4.196-0.703c-3.548,0-6.308,1.857-6.308,5.35
		c0,6.111,8.448,4.9,8.448,9.293c0,2.309-2.252,3.211-3.857,3.211c-1.437,0-3.126-0.564-4.083-0.959l-0.282,2.619
		c1.295,0.424,2.647,0.816,4.027,0.816c3.942,0,7.181-1.66,7.181-5.855c0-6.477-8.448-5.605-8.448-9.379
		c0-2.055,1.858-2.617,3.436-2.617c1.464,0,2.253,0.252,3.689,0.816L29.682,110.297L29.682,110.297z"/>
	<path fill="#424751" d="M41.821,115.225H38.02v-4.168l-2.647,0.846v3.322h-3.238v2.141h3.238v8.393c0,2.871,1.69,4.166,4.421,4.166
		c0.845,0,1.661-0.225,2.252-0.393v-2.254c-0.394,0.254-0.985,0.508-1.802,0.508c-1.211,0-2.225-0.902-2.225-2.562v-7.857h3.802
		V115.225L41.821,115.225z"/>
	<path fill-rule="evenodd" clip-rule="evenodd" fill="#424751" d="M56.151,126.348c-0.647,0.535-2.675,1.438-4.421,1.438
		c-2.506,0-4.731-1.943-4.731-4.787h10.25c0-4.619-1.549-8.111-6.336-8.111c-4.055,0-6.73,3.014-6.73,7.266
		c0,4.674,2.337,7.771,7.434,7.771c2.366,0,3.52-0.562,4.534-0.928V126.348L56.151,126.348z M46.999,121.025
		c0.197-1.857,1.267-3.998,3.858-3.998c2.281,0,3.576,1.803,3.576,3.998H46.999L46.999,121.025z"/>
	<path fill="#424751" d="M73.214,115.225h-2.647v6.646c0,3.492-1.352,5.914-4.365,5.914c-2.309-0.141-3.042-1.775-3.042-5.125
		v-7.436h-2.647v8.533c0,3.857,1.662,6.166,5.378,6.166c2,0,3.915-0.984,4.703-2.617h0.056v2.279h2.563V115.225L73.214,115.225z"/>
	<path fill-rule="evenodd" clip-rule="evenodd" fill="#424751" d="M88.727,126.348c-0.647,0.535-2.675,1.438-4.421,1.438
		c-2.506,0-4.731-1.943-4.731-4.787h10.25c0-4.619-1.548-8.111-6.336-8.111c-4.055,0-6.73,3.014-6.73,7.266
		c0,4.674,2.337,7.771,7.434,7.771c2.365,0,3.52-0.562,4.534-0.928V126.348L88.727,126.348z M79.575,121.025
		c0.197-1.857,1.267-3.998,3.858-3.998c2.281,0,3.576,1.803,3.576,3.998H79.575L79.575,121.025z"/>
	<path fill="#424751" d="M93.371,129.586h2.647v-6.531c0-3.605,1.549-5.857,3.915-5.857c0.45,0,0.986,0.055,1.464,0.252v-2.365
		c-0.563-0.111-0.958-0.197-1.746-0.197c-1.521,0-3.041,1.07-3.746,2.562h-0.056v-2.225h-2.478V129.586L93.371,129.586z"/>
	<polygon fill="#424751" points="104.321,129.586 106.968,129.586 106.968,122.209 113.389,129.586 117.191,129.586 109.672,121.59 
		116.346,115.225 112.741,115.225 106.968,121.055 106.968,108.467 104.321,108.467 104.321,129.586 	"/>
	<path fill-rule="evenodd" clip-rule="evenodd" fill="#424751" d="M120.229,118.492c1.07-0.9,2.675-1.465,4.168-1.465
		c2.647,0,3.548,1.268,3.548,3.746c-1.042-0.057-1.773-0.057-2.816-0.057c-2.731,0-6.674,1.127-6.674,4.73
		c0,3.125,2.168,4.477,5.266,4.477c2.421,0,3.83-1.322,4.449-2.195h0.057v1.857h2.478c-0.057-0.422-0.113-1.182-0.113-2.814v-5.943
		c0-3.914-1.662-5.941-5.773-5.941c-1.831,0-3.407,0.564-4.731,1.352L120.229,118.492L120.229,118.492z M127.945,124.012
		c0,2.141-1.379,3.773-3.999,3.773c-1.211,0-2.675-0.816-2.675-2.338c0-2.535,3.548-2.76,4.984-2.76
		c0.563,0,1.126,0.057,1.689,0.057V124.012L127.945,124.012z"/>
	<path fill="#424751" d="M135.067,129.586h2.647v-6.645c0-3.492,1.352-5.914,4.365-5.914c2.309,0.141,3.042,1.773,3.042,5.125v7.434
		h2.647v-8.531c0-3.857-1.662-6.168-5.379-6.168c-1.999,0-3.914,0.986-4.703,2.619h-0.056v-2.281h-2.562V129.586L135.067,129.586z"
		/>
	<polygon fill="#424751" points="151.228,129.586 162.887,129.586 162.887,127.447 154.297,127.447 162.576,117.535 
		162.576,115.225 151.623,115.225 151.623,117.365 159.507,117.365 151.228,127.277 151.228,129.586 	"/>
	<polygon fill="#424751" points="166.689,129.586 169.337,129.586 169.337,108.467 166.689,108.467 166.689,129.586 	"/>
	<path fill-rule="evenodd" clip-rule="evenodd" fill="#424751" d="M185.103,126.348c-0.647,0.535-2.675,1.438-4.421,1.438
		c-2.506,0-4.73-1.943-4.73-4.787h10.25c0-4.619-1.549-8.111-6.336-8.111c-4.055,0-6.73,3.014-6.73,7.266
		c0,4.674,2.337,7.771,7.435,7.771c2.365,0,3.52-0.562,4.533-0.928V126.348L185.103,126.348z M175.951,121.025
		c0.197-1.857,1.267-3.998,3.857-3.998c2.281,0,3.577,1.803,3.577,3.998H175.951L175.951,121.025z"/>
	<path fill-rule="evenodd" clip-rule="evenodd" fill="#424751" d="M189.943,129.586h2.647v-14.361h-2.647V129.586L189.943,129.586z
		 M192.76,109.029h-2.984v2.986h2.984V109.029L192.76,109.029z"/>
	<path fill="#424751" d="M214.83,110.297c-1.352-0.479-2.9-0.703-4.196-0.703c-3.548,0-6.308,1.857-6.308,5.35
		c0,6.111,8.448,4.9,8.448,9.293c0,2.309-2.253,3.211-3.858,3.211c-1.436,0-3.126-0.564-4.083-0.959l-0.282,2.619
		c1.296,0.424,2.647,0.816,4.027,0.816c3.942,0,7.182-1.66,7.182-5.855c0-6.477-8.448-5.605-8.448-9.379
		c0-2.055,1.858-2.617,3.435-2.617c1.465,0,2.253,0.252,3.689,0.816L214.83,110.297L214.83,110.297z"/>
	<path fill-rule="evenodd" clip-rule="evenodd" fill="#424751" d="M220.154,118.492c1.07-0.9,2.675-1.465,4.168-1.465
		c2.646,0,3.548,1.268,3.548,3.746c-1.042-0.057-1.774-0.057-2.816-0.057c-2.731,0-6.674,1.127-6.674,4.73
		c0,3.125,2.168,4.477,5.266,4.477c2.422,0,3.83-1.322,4.45-2.195h0.056v1.857h2.479c-0.057-0.422-0.112-1.182-0.112-2.814v-5.943
		c0-3.914-1.662-5.941-5.773-5.941c-1.83,0-3.407,0.564-4.73,1.352L220.154,118.492L220.154,118.492z M227.87,124.012
		c0,2.141-1.38,3.773-3.999,3.773c-1.211,0-2.675-0.816-2.675-2.338c0-2.535,3.548-2.76,4.984-2.76c0.562,0,1.126,0.057,1.689,0.057
		V124.012L227.87,124.012z"/>
	<path fill-rule="evenodd" clip-rule="evenodd" fill="#424751" d="M247.692,115.225h-2.45v2.141h-0.057
		c-0.788-1.549-2.196-2.479-4.73-2.479c-4.337,0-6.421,3.943-6.421,7.631c0,3.719,2.027,7.068,6.139,7.068
		c1.83,0,3.689-0.73,4.815-2.223h0.057v1.406c0,3.041-1.661,4.928-4.449,4.928c-1.943,0-3.154-0.365-5.182-1.295l-0.281,2.451
		c2.309,0.787,3.633,0.984,5.153,0.984c5.153,0,7.406-2.506,7.406-6.871V115.225L247.692,115.225z M240.849,127.447
		c-2.478,0-3.999-2.365-3.999-5.068c0-2.451,1.324-5.352,3.999-5.352c2.816,0,4.196,2.562,4.196,5.549
		C245.045,125.25,243.327,127.447,240.849,127.447L240.849,127.447z"/>
	<path fill-rule="evenodd" clip-rule="evenodd" fill="#424751" d="M263.205,126.348c-0.647,0.535-2.675,1.438-4.421,1.438
		c-2.506,0-4.731-1.943-4.731-4.787h10.251c0-4.619-1.549-8.111-6.336-8.111c-4.055,0-6.73,3.014-6.73,7.266
		c0,4.674,2.337,7.771,7.435,7.771c2.365,0,3.52-0.562,4.533-0.928V126.348L263.205,126.348z M254.053,121.025
		c0.197-1.857,1.268-3.998,3.858-3.998c2.281,0,3.577,1.803,3.577,3.998H254.053L254.053,121.025z"/>
	<path fill="#424751" d="M267.849,129.586h2.647v-6.531c0-3.605,1.549-5.857,3.914-5.857c0.45,0,0.986,0.055,1.465,0.252v-2.365
		c-0.563-0.111-0.958-0.197-1.746-0.197c-1.521,0-3.041,1.07-3.745,2.562h-0.057v-2.225h-2.479V129.586L267.849,129.586z"/>
	<path fill-rule="evenodd" clip-rule="evenodd" fill="#424751" d="M289.247,126.348c-0.647,0.535-2.675,1.438-4.421,1.438
		c-2.506,0-4.73-1.943-4.73-4.787h10.25c0-4.619-1.549-8.111-6.336-8.111c-4.055,0-6.73,3.014-6.73,7.266
		c0,4.674,2.337,7.771,7.435,7.771c2.365,0,3.52-0.562,4.533-0.928V126.348L289.247,126.348z M280.096,121.025
		c0.196-1.857,1.267-3.998,3.857-3.998c2.281,0,3.577,1.803,3.577,3.998H280.096L280.096,121.025z"/>
	<path fill="#424751" d="M293.75,129.586h2.647v-6.531c0-3.605,1.549-5.857,3.914-5.857c0.45,0,0.986,0.055,1.465,0.252v-2.365
		c-0.563-0.111-0.958-0.197-1.746-0.197c-1.521,0-3.041,1.07-3.745,2.562h-0.057v-2.225h-2.479V129.586L293.75,129.586z"/>
	<path fill-rule="evenodd" clip-rule="evenodd" fill="#424751" stroke="#424751" stroke-width="0" stroke-miterlimit="3.8637" d="
		M225.739,85.507l94.575,0v1.596h-96.24l-0.36,0.281l0.01-0.295c2.351-3.005,3.736-6.705,3.736-10.705
		c0-4.803-2.07-9.228-5.337-12.484c-0.917-0.912-1.968-1.794-3.128-2.607c-1.168-0.818-2.357-1.505-3.53-2.054
		c-0.212-0.095-0.428-0.188-0.645-0.279l-15.738-6.595l-8.731-3.65c-3.682-1.577-6.642-3.959-8.292-6.604
		c-1.284-2.089-2.009-4.484-2.009-7.038c0-2.841,0.914-5.495,2.511-7.751c1.966-2.828,5.063-5.111,8.749-6.46
		c1.584-0.551,3.583-0.972,5.777-1.164c1.383-0.121,2.706-0.14,3.91-0.07c4.174,0.234,8.196,0.841,11.913,1.744l6.947,1.614
		c1.109,0.231,2.324,0.359,3.597,0.359c1.351,0,2.637-0.144,3.805-0.403l-0.028,19.5l-0.496,0.199
		c-1.089-9.255-10.776-16.801-23.454-18.711c-5.948-0.929-11.565,0.374-14.708,3.23c-1.655,1.536-2.801,4.013-2.801,6.647
		c0,2.17,0.713,4.147,1.883,5.635c1.312,1.547,3.632,3.077,6.695,4.441l22.997,9.549c8.921,3.854,14.645,12.343,13.535,21.381
		C230.377,78.928,228.5,82.589,225.739,85.507L225.739,85.507z"/>
	<path fill="#424751" stroke="#424751" stroke-width="0" stroke-miterlimit="3.8637" d="M170.48,87.104H0v-1.596l170.48,0V67.215
		l1.096-0.368c1,10.736,10.483,21.581,24.826,23.741c6.705,1.049,12.985-0.516,16.528-3.735c1.865-1.732,3.157-4.524,3.157-7.494
		c0-1.076-0.155-2.111-0.442-3.075c-0.778-2.688-3.608-5.335-7.416-7.092l-17.38-7.234c-3-1.32-5.917-2.743-8.529-4.142
		c-1.312-0.67-2.632-1.54-3.893-2.597c-2.286-1.918-3.998-4.137-4.984-6.278c-2.08-4.593-2.266-10.107,0-15.195
		c0.996-2.237,2.368-4.184,4.014-5.795c0.479-0.5,0.992-1.003,1.525-1.455l0.086,0.194c-2.314,2.782-3.716,6.456-3.716,10.484
		c0,3.069,0.813,5.933,2.221,8.353c1.832,3.385,5.413,6.49,10.089,8.443l24.168,10.057c6.255,2.746,10.512,8.182,10.512,14.441
		c0,6.839-5.15,12.759-12.37,15.194c-3.329,1.215-7.138,1.902-11.179,1.902c-2.274,0-4.474-0.217-6.555-0.625
		c-3.263-0.559-7.203-1.42-11.411-2.549l-0.631-0.17c-2.423-0.637-4.773-0.48-6.329,0.285c-0.824,0.402-1.395,1.186-1.484,2.105
		l-1.897-1.59L170.48,87.104L170.48,87.104z"/>
</g>
</svg>
